<?xml version="1.0" encoding="UTF-8" standalone="no"?>
<!-- Created with Inkscape (http://www.inkscape.org/) -->

<svg
   xmlns:dc="http://purl.org/dc/elements/1.1/"
   xmlns:cc="http://creativecommons.org/ns#"
   xmlns:rdf="http://www.w3.org/1999/02/22-rdf-syntax-ns#"
   xmlns:svg="http://www.w3.org/2000/svg"
   xmlns="http://www.w3.org/2000/svg"
   xmlns:sodipodi="http://sodipodi.sourceforge.net/DTD/sodipodi-0.dtd"
   xmlns:inkscape="http://www.inkscape.org/namespaces/inkscape"
   width="596.9101"
   height="128.27324"
   id="svg2"
   version="1.1"
   inkscape:version="0.48.1 r9760"
   sodipodi:docname="logo.svg"
   inkscape:export-filename="/home/sergio/Workspace/Projects/Production/Djournal/djournal-media/images/logo.png"
   inkscape:export-xdpi="90"
   inkscape:export-ydpi="90">
  <defs
     id="defs4">
    <marker
       inkscape:stockid="SquareL"
       orient="auto"
       refY="0"
       refX="0"
       id="SquareL"
       style="overflow:visible">
      <path
         id="path3874"
         d="M -5,-5 -5,5 5,5 5,-5 -5,-5 z"
         style="fill-rule:evenodd;stroke:#000000;stroke-width:1pt;marker-start:none"
         transform="scale(0.8,0.8)"
         inkscape:connector-curvature="0" />
    </marker>
    <marker
       inkscape:stockid="Arrow1Lstart"
       orient="auto"
       refY="0"
       refX="0"
       id="Arrow1Lstart"
       style="overflow:visible">
      <path
         id="path3803"
         d="M 0,0 5,-5 -12.5,0 5,5 0,0 z"
         style="fill-rule:evenodd;stroke:#000000;stroke-width:1pt;marker-start:none"
         transform="matrix(0.8,0,0,0.8,10,0)"
         inkscape:connector-curvature="0" />
    </marker>
  </defs>
  <sodipodi:namedview
     id="base"
     pagecolor="#ffffff"
     bordercolor="#666666"
     borderopacity="1.0"
     inkscape:pageopacity="0.0"
     inkscape:pageshadow="2"
     inkscape:zoom="1"
     inkscape:cx="261.29107"
     inkscape:cy="26.321597"
     inkscape:document-units="px"
     inkscape:current-layer="layer1"
     showgrid="false"
     inkscape:snap-midpoints="false"
     fit-margin-top="10"
     fit-margin-bottom="10"
     fit-margin-left="10"
     fit-margin-right="10"
     inkscape:window-width="1366"
     inkscape:window-height="719"
     inkscape:window-x="-2"
     inkscape:window-y="-3"
     inkscape:window-maximized="1" />
  <metadata
     id="metadata7">
    <rdf:RDF>
      <cc:Work
         rdf:about="">
        <dc:format>image/svg+xml</dc:format>
        <dc:type
           rdf:resource="http://purl.org/dc/dcmitype/StillImage" />
        <dc:title></dc:title>
      </cc:Work>
    </rdf:RDF>
  </metadata>
  <g
     inkscape:label="Layer 1"
     inkscape:groupmode="layer"
     id="layer1"
     transform="translate(-48.198273,-310.03834)">
    <flowRoot
       xml:space="preserve"
       id="flowRoot2985"
       style="font-size:40px;font-style:normal;font-weight:normal;line-height:125%;letter-spacing:0px;word-spacing:0px;fill:#000000;fill-opacity:1;stroke:none;font-family:Sans"><flowRegion
         id="flowRegion2987"><rect
           id="rect2989"
           width="585.71429"
           height="228.57143"
           x="102.85714"
           y="280.93362" /></flowRegion><flowPara
         id="flowPara2991"></flowPara></flowRoot>    <flowRoot
       xml:space="preserve"
       id="flowRoot2993"
       style="font-size:40px;font-style:normal;font-variant:normal;font-weight:normal;font-stretch:normal;line-height:125%;letter-spacing:0px;word-spacing:0px;fill:#000000;fill-opacity:1;stroke:none;font-family:Audiowide;-inkscape-font-specification:Audiowide"><flowRegion
         id="flowRegion2995"><rect
           id="rect2997"
           width="545.71429"
           height="122.85714"
           x="128.57143"
           y="312.36218"
           style="font-style:normal;font-variant:normal;font-weight:normal;font-stretch:normal;font-family:Audiowide;-inkscape-font-specification:Audiowide" /></flowRegion><flowPara
         id="flowPara2999"></flowPara></flowRoot>    <g
       transform="matrix(0.92761214,0,0,1,105.00701,84.030047)"
       style="font-size:40px;font-style:normal;font-weight:normal;line-height:125%;letter-spacing:0px;word-spacing:0px;fill:#000000;fill-opacity:1;stroke:none;font-family:Sans"
       id="flowRoot3001">
      <path
         style="font-size:72px;font-variant:normal;font-stretch:normal;font-family:Audiowide;-inkscape-font-specification:Audiowide"
         d="m 212.53125,352.8125 c -0.65626,5e-5 -1.25001,0.10943 -1.8125,0.34375 -0.56251,0.23443 -1.07813,0.54692 -1.5,0.96875 -0.39844,0.42192 -0.70313,0.93755 -0.9375,1.5 -0.23438,0.56255 -0.34375,1.14848 -0.34375,1.78125 0.003,1.51879 -0.005,3.01887 0,4.53125 l 9.125,0 5.8125,0 14.34375,0 c 1.78121,5e-5 3.39059,0.2891 4.84375,0.875 1.47652,0.56254 2.75778,1.38285 3.8125,2.4375 1.05465,1.03129 1.8437,2.27347 2.40625,3.75 0.58589,1.4766 0.87496,3.12503 0.875,4.90625 l 0,8.21875 c -4e-5,1.80471 -0.28911,3.4297 -0.875,4.90625 -0.56255,1.45314 -1.3516,2.72657 -2.40625,3.78125 -1.05472,1.03126 -2.33598,1.82032 -3.8125,2.40625 -1.45316,0.56251 -3.06254,0.84376 -4.84375,0.84375 l -20.15625,0 0,-22.53125 -9.09375,0 c 0.0388,8.90448 0.0865,17.821 -0.0312,27.0625 0,0.65626 0.10937,1.28125 0.34375,1.84375 0.23437,0.5625 0.53906,1.04688 0.9375,1.46875 0.42187,0.39844 0.93749,0.73437 1.5,0.96875 0.56249,0.23437 1.15624,0.34375 1.8125,0.34375 l 24.6875,0 c 3.0234,0 5.82809,-0.53906 8.40625,-1.59375 2.57808,-1.05468 4.81245,-2.49219 6.6875,-4.34375 1.87495,-1.875 3.32026,-4.10937 4.375,-6.6875 1.07807,-2.57811 1.62494,-5.39842 1.625,-8.46875 l 0,-8.21875 c -6e-5,-3.04684 -0.54693,-5.85934 -1.625,-8.4375 -1.05474,-2.60152 -2.50005,-4.83589 -4.375,-6.6875 -1.87505,-1.87495 -4.10942,-3.35151 -6.6875,-4.40625 -2.57816,-1.05464 -5.38285,-1.56245 -8.40625,-1.5625 l -24.6875,0 z"
         transform="translate(-96.974644,-83.842661)"
         id="path4834"
         inkscape:connector-curvature="0" />
      <path
         d="m 211.92578,306.53775 c -5e-5,1.82814 -0.31645,3.52735 -0.94922,5.09766 -0.63286,1.57032 -1.52348,2.92969 -2.67187,4.07812 -1.12505,1.14844 -2.4727,2.05078 -4.04297,2.70703 -1.57035,0.63282 -3.28129,0.94922 -5.13281,0.94922 l -33.50391,0 0,-9.14062 33.50391,0 c 1.12496,1e-5 2.00387,-0.3164 2.63671,-0.94922 0.63278,-0.65624 0.94919,-1.5703 0.94922,-2.74219 l 0,-37.58203 9.21094,0 0,37.58203"
         style="font-size:72px;font-variant:normal;font-stretch:normal;font-family:Audiowide;-inkscape-font-specification:Audiowide"
         id="path4836"
         inkscape:connector-curvature="0" />
      <path
         d="m 275.3125,298.97916 c -6e-5,3.07033 -0.5274,5.89454 -1.58203,8.47265 -1.05474,2.57814 -2.51959,4.8047 -4.39453,6.67969 -1.87505,1.875 -4.10161,3.33985 -6.67969,4.39453 -2.55473,1.03125 -5.34379,1.54688 -8.36719,1.54688 l -12.375,0 c -3.02346,0 -5.82424,-0.51563 -8.40234,-1.54688 -2.57814,-1.05468 -4.8047,-2.51953 -6.67969,-4.39453 -1.87501,-1.87499 -3.35157,-4.10155 -4.42969,-6.67969 -1.05469,-2.57811 -1.58203,-5.40232 -1.58203,-8.47265 l 0,-9.63282 c 0,-3.04684 0.52734,-5.85933 1.58203,-8.4375 1.07812,-2.60152 2.55468,-4.82808 4.42969,-6.67968 1.87499,-1.87496 4.10155,-3.3398 6.67969,-4.39453 2.5781,-1.05464 5.37888,-1.58198 8.40234,-1.58204 l 12.375,0 c 3.0234,6e-5 5.81246,0.5274 8.36719,1.58204 2.57808,1.05473 4.80464,2.51957 6.67969,4.39453 1.87494,1.8516 3.33979,4.07816 4.39453,6.67968 1.05463,2.57817 1.58197,5.39066 1.58203,8.4375 l 0,9.63282 m -9.14063,-9.63282 c -4e-5,-1.80465 -0.29301,-3.43356 -0.8789,-4.88671 -0.56255,-1.47653 -1.37114,-2.73044 -2.42578,-3.76172 -1.0313,-1.05465 -2.2852,-1.86324 -3.76172,-2.42578 -1.45317,-0.5859 -3.05863,-0.87887 -4.81641,-0.87891 l -12.375,0 c -1.78127,4e-5 -3.41018,0.29301 -4.88672,0.87891 -1.45314,0.56254 -2.70704,1.37113 -3.76172,2.42578 -1.0547,1.03128 -1.87501,2.28519 -2.46093,3.76172 -0.56252,1.45315 -0.84377,3.08206 -0.84375,4.88671 l 0,9.63282 c -2e-5,1.8047 0.28123,3.44533 0.84375,4.92187 0.58592,1.45314 1.40623,2.70705 2.46093,3.76172 1.05468,1.03126 2.30858,1.83985 3.76172,2.42578 1.47654,0.56251 3.10545,0.84376 4.88672,0.84375 l 12.30469,0 c 1.78121,1e-5 3.3984,-0.28124 4.85156,-0.84375 1.47652,-0.58593 2.74215,-1.39452 3.79688,-2.42578 1.05464,-1.05467 1.86323,-2.30858 2.42578,-3.76172 0.58589,-1.47654 0.87886,-3.11717 0.8789,-4.92187 l 0,-9.63282"
         style="font-size:72px;font-variant:normal;font-stretch:normal;font-family:Audiowide;-inkscape-font-specification:Audiowide"
         id="path4838"
         inkscape:connector-curvature="0" />
      <path
         d="m 333.8125,314.76431 c -5e-5,0.65626 -0.11724,1.26563 -0.35156,1.82813 -0.23443,0.5625 -0.56256,1.05469 -0.98438,1.47656 -0.42193,0.39844 -0.91411,0.71484 -1.47656,0.94922 -0.56255,0.23437 -1.16021,0.35156 -1.79297,0.35156 l -20.60156,0 c -1.94534,0 -3.91409,-0.21094 -5.90625,-0.63281 -1.99221,-0.42187 -3.9258,-1.06641 -5.80078,-1.93359 -1.85158,-0.89063 -3.59767,-2.01562 -5.23828,-3.375 -1.64064,-1.35937 -3.08204,-2.96484 -4.32422,-4.81641 -1.21876,-1.87499 -2.1797,-4.0078 -2.88282,-6.39844 -0.70312,-2.41404 -1.05469,-5.09763 -1.05468,-8.05078 l 0,-25.20703 9.14062,0 0,25.20703 c -1e-5,2.57815 0.35155,4.75783 1.05469,6.53906 0.72655,1.78127 1.64061,3.26955 2.74219,4.46485 1.10154,1.19532 2.30857,2.13282 3.62109,2.8125 1.31248,0.67969 2.55467,1.1836 3.72656,1.51172 1.19529,0.32813 2.23826,0.53907 3.12891,0.63281 0.91403,0.0703 1.51169,0.10548 1.79297,0.10547 l 16.0664,0 0,-41.27344 9.14063,0 0,45.80859"
         style="font-size:72px;font-variant:normal;font-stretch:normal;font-family:Audiowide;-inkscape-font-specification:Audiowide"
         id="path4840"
         inkscape:connector-curvature="0" />
      <path
         d="m 394.84375,285.90103 c -6e-5,2.08597 -0.25787,3.94925 -0.77344,5.58985 -0.51568,1.64065 -1.2188,3.09377 -2.10937,4.35937 -0.86724,1.24221 -1.87505,2.30862 -3.02344,3.19922 -1.14849,0.89064 -2.35552,1.62892 -3.62109,2.21484 -1.24224,0.56252 -2.50786,0.97268 -3.79688,1.23047 -1.26566,0.25783 -2.46098,0.38674 -3.58594,0.38672 l 19.08985,16.48828 -14.13282,0 -19.05468,-16.48828 -6.57422,0 0,-9.14062 20.67187,0 c 1.1484,-0.0937 2.19137,-0.3281 3.12891,-0.70313 0.96089,-0.39841 1.78121,-0.92575 2.46094,-1.58203 0.70308,-0.65622 1.24214,-1.44138 1.61718,-2.35547 0.37496,-0.93747 0.56246,-2.00387 0.5625,-3.19922 l 0,-5.76562 c -4e-5,-0.51559 -0.0704,-0.90231 -0.21093,-1.16016 -0.11724,-0.28121 -0.2813,-0.48043 -0.49219,-0.59766 -0.18755,-0.14058 -0.39848,-0.22261 -0.63281,-0.24609 -0.21099,-0.0234 -0.4102,-0.0351 -0.59766,-0.0352 l -30.16406,0 0,41.27344 -9.14063,0 0,-45.80859 c 0,-0.63277 0.11719,-1.23042 0.35157,-1.79297 0.23437,-0.56245 0.55077,-1.05464 0.94921,-1.47656 0.42187,-0.42183 0.91406,-0.74995 1.47657,-0.98438 0.56249,-0.23432 1.17186,-0.35151 1.82812,-0.35156 l 34.69922,0 c 2.03902,5e-5 3.76167,0.37505 5.16797,1.125 1.4062,0.72661 2.54292,1.65239 3.41016,2.77734 0.89057,1.10161 1.52338,2.29692 1.89843,3.58594 0.39839,1.2891 0.5976,2.49613 0.59766,3.62109 l 0,5.83594"
         style="font-size:72px;font-variant:normal;font-stretch:normal;font-family:Audiowide;-inkscape-font-specification:Audiowide"
         id="path4842"
         inkscape:connector-curvature="0" />
      <path
         d="m 454.46875,315.46744 c -6e-5,0.65625 -0.12896,1.26563 -0.38672,1.82812 -0.23443,0.5625 -0.56255,1.05469 -0.98437,1.47657 -0.3985,0.39843 -0.87896,0.71484 -1.44141,0.94921 -0.56255,0.23438 -1.16021,0.35157 -1.79297,0.35157 -0.56255,0 -1.13677,-0.10547 -1.72266,-0.31641 -0.56254,-0.21094 -1.06645,-0.55078 -1.51171,-1.01953 l -33.39844,-34.875 0,35.50781 -9.14063,0 0,-46.51172 c 0,-0.93745 0.25781,-1.7812 0.77344,-2.53125 0.53906,-0.77338 1.21874,-1.3476 2.03906,-1.72265 0.86718,-0.35151 1.75781,-0.43355 2.67188,-0.2461 0.91405,0.16412 1.69921,0.58599 2.35547,1.26563 l 33.39843,34.83984 0,-35.50781 9.14063,0 0,46.51172"
         style="font-size:72px;font-variant:normal;font-stretch:normal;font-family:Audiowide;-inkscape-font-specification:Audiowide"
         id="path4844"
         inkscape:connector-curvature="0" />
      <path
         d="m 514.58594,319.36978 -9.14063,0 0,-12.375 -32.13281,0 0,12.375 -9.14063,0 0,-25.20703 c 0,-3.67966 0.63281,-7.06637 1.89844,-10.16016 1.26562,-3.09371 3.02343,-5.75386 5.27344,-7.98046 2.24999,-2.22652 4.91014,-3.96089 7.98047,-5.20313 3.07029,-1.24214 6.42185,-1.86323 10.05469,-1.86328 l 20.60156,0 c 0.63276,5e-5 1.23042,0.11724 1.79297,0.35156 0.56244,0.23443 1.05463,0.56255 1.47656,0.98438 0.42182,0.42192 0.74995,0.91411 0.98437,1.47656 0.23433,0.56255 0.35151,1.1602 0.35157,1.79297 l 0,45.80859 m -41.27344,-21.51562 32.13281,0 0,-19.75782 -16.0664,0 c -0.28128,5e-5 -0.87894,0.0469 -1.79297,0.14063 -0.89065,0.0704 -1.93362,0.26957 -3.12891,0.59766 -1.1719,0.32816 -2.41408,0.83207 -3.72656,1.51171 -1.31252,0.67973 -2.51955,1.61723 -3.6211,2.8125 -1.10157,1.19535 -2.01564,2.69535 -2.74218,4.5 -0.70314,1.78128 -1.0547,3.94925 -1.05469,6.50391 l 0,3.69141"
         style="font-size:72px;font-variant:normal;font-stretch:normal;font-family:Audiowide;-inkscape-font-specification:Audiowide"
         id="path4846"
         inkscape:connector-curvature="0" />
      <path
         d="m 571.46875,319.36978 -41.69531,0 c -0.65626,0 -1.26564,-0.11719 -1.82813,-0.35156 -0.56251,-0.23438 -1.05469,-0.55078 -1.47656,-0.94922 -0.39844,-0.42187 -0.71485,-0.91406 -0.94922,-1.47656 -0.23438,-0.5625 -0.35157,-1.17187 -0.35156,-1.82813 l 0,-45.80859 9.14062,0 0,41.27344 37.16016,0 0,9.14062"
         style="font-size:72px;font-variant:normal;font-stretch:normal;font-family:Audiowide;-inkscape-font-specification:Audiowide"
         id="path4848"
         inkscape:connector-curvature="0" />
    </g>
    <path
       style="font-size:medium;font-style:normal;font-variant:normal;font-weight:normal;font-stretch:normal;text-indent:0;text-align:start;text-decoration:none;line-height:normal;letter-spacing:normal;word-spacing:normal;text-transform:none;direction:ltr;block-progression:tb;writing-mode:lr-tb;text-anchor:start;baseline-shift:baseline;color:#000000;fill:#000000;fill-opacity:1;stroke:none;stroke-width:10.23032379;marker:none;visibility:visible;display:inline;overflow:visible;enable-background:accumulate;font-family:Sans;-inkscape-font-specification:Sans"
       d="m 67.40625,15.9375 c 6.438719,2.685223 13.445786,6.169109 19.28125,10.21875 l 49.0625,0 c 2.16863,0 3.78125,1.58137 3.78125,3.75 l 0,74.53125 c 0,2.16863 -1.61262,3.75 -3.78125,3.75 l -75.3125,0 c -2.16863,0 -3.75,-1.58137 -3.75,-3.75 l 0,-53.0625 C 53.313273,49.106238 49.863171,47.126153 46.46875,45 l 0,59.4375 c 0,7.65928 6.30947,13.96875 13.96875,13.96875 l 75.3125,0 c 7.65928,0 14,-6.30947 14,-13.96875 l 0,-74.53125 c 0,-7.65928 -6.34072,-13.96875 -14,-13.96875 z"
       transform="translate(48.198273,310.03834)"
       id="rect3009"
       inkscape:connector-curvature="0"
       sodipodi:nodetypes="ccssssssccssssssc" />
    <path
       style="fill:#000000;stroke:none"
       d="m 60.9734,326.91103 c 34.832273,-17.36696 89.39898,11.94727 102.77584,45.46443 4.05912,10.17056 2.95354,14.26975 3.36707,22.11077 -14.90603,-0.95295 -29.37164,-5.59776 -37.63558,-15.2184 -15.11584,-23.31505 -79.182733,-45.71402 -68.50733,-52.3568 z"
       id="path4825"
       inkscape:connector-curvature="0"
       sodipodi:nodetypes="csccc" />
    <path
       style="fill:#ffffff;stroke:#000000;stroke-width:1.41107905;stroke-linecap:butt;stroke-linejoin:miter;stroke-miterlimit:4;stroke-opacity:1;stroke-dasharray:none"
       d="m 63.850772,328.83106 c 52.935608,5.21029 88.677718,40.16776 107.334758,81.94834 3.04813,-0.20718 6.73355,4.78145 9.42739,4.44065 C 147.5237,353.1167 105.24841,327.79923 63.850772,328.83106 z"
       id="path4827"
       inkscape:connector-curvature="0"
       sodipodi:nodetypes="cccc" />
  </g>
</svg>
